HIERARCHY
ROOT Hips
{
  OFFSET 5.80788e-005 67.184 3.4734
  CHANNELS 6 Xposition Yposition Zposition Zrotation Xrotation Yrotation
  JOINT Chest
  {
    OFFSET 0 8.7983 -4.7612
    CHANNELS 6 Xposition Yposition Zposition Zrotation Xrotation Yrotation
    JOINT Chest2
    {
      OFFSET 0 8.0291 0.4195
      CHANNELS 6 Xposition Yposition Zposition Zrotation Xrotation Yrotation
      JOINT Chest3
      {
        OFFSET 0 9.9351 -2.2114
        CHANNELS 6 Xposition Yposition Zposition Zrotation Xrotation Yrotation
        JOINT Neck
        {
          OFFSET 0 22.3885 -0.4656
          CHANNELS 6 Xposition Yposition Zposition Zrotation Xrotation Yrotation
          JOINT Head
          {
            OFFSET -0.0001 12.643 3.4389
            CHANNELS 6 Xposition Yposition Zposition Zrotation Xrotation Yrotation
            End Site
            {
              OFFSET 0.0001 17.6655 0.5274
            }
          }
        }
        JOINT LeftCollar
        {
          OFFSET 2.2603 21.606 7.4023
          CHANNELS 6 Xposition Yposition Zposition Zrotation Xrotation Yrotation
          JOINT LeftShoulder
          {
            OFFSET 13.5163 -1.1332 -5.0146
            CHANNELS 6 Xposition Yposition Zposition Zrotation Xrotation Yrotation
            JOINT LeftElbow
            {
              OFFSET -0.0995 -28.05 -0.2431
              CHANNELS 6 Xposition Yposition Zposition Zrotation Xrotation Yrotation
              JOINT LeftWrist
              {
                OFFSET 0.0679 -23.3996 -0.1402
                CHANNELS 6 Xposition Yposition Zposition Zrotation Xrotation Yrotation
                JOINT LeftFinger1
                {
                  OFFSET 0.7932 -9.069 2.5189
                  CHANNELS 6 Xposition Yposition Zposition Zrotation Xrotation Yrotation
                  JOINT LeftFinger11
                  {
                    OFFSET -0.8272 -3.3923 0.5977
                    CHANNELS 6 Xposition Yposition Zposition Zrotation Xrotation Yrotation
                    JOINT LeftFinger12
                    {
                      OFFSET -0.5649 -2.3158 0.4082
                      CHANNELS 6 Xposition Yposition Zposition Zrotation Xrotation Yrotation
                      End Site
                      {
                        OFFSET -0.4919 -1.6479 0.2673
                      }
                    }
                  }
                }
                JOINT LeftFinger2
                {
                  OFFSET 0.9159 -9.2044 0.2193
                  CHANNELS 6 Xposition Yposition Zposition Zrotation Xrotation Yrotation
                  JOINT LeftFinger21
                  {
                    OFFSET 0.0117 -4.1944 -0.0248
                    CHANNELS 6 Xposition Yposition Zposition Zrotation Xrotation Yrotation
                    JOINT LeftFinger22
                    {
                      OFFSET 0.0071 -2.3249 -0.0142
                      CHANNELS 6 Xposition Yposition Zposition Zrotation Xrotation Yrotation
                      End Site
                      {
                        OFFSET -0.1475 -2.0882 0.0028
                      }
                    }
                  }
                }
                JOINT LeftFinger3
                {
                  OFFSET 0.6113 -8.7231 -2.0637
                  CHANNELS 6 Xposition Yposition Zposition Zrotation Xrotation Yrotation
                  JOINT LeftFinger31
                  {
                    OFFSET -0.1927 -3.8059 -0.2383
                    CHANNELS 6 Xposition Yposition Zposition Zrotation Xrotation Yrotation
                    JOINT LeftFinger32
                    {
                      OFFSET -0.1091 -2.1688 -0.1362
                      CHANNELS 6 Xposition Yposition Zposition Zrotation Xrotation Yrotation
                      End Site
                      {
                        OFFSET -0.2358 -1.9176 -0.0906
                      }
                    }
                  }
                }
                JOINT LeftFinger4
                {
                  OFFSET -0.6151 -8.0947 -3.5641
                  CHANNELS 6 Xposition Yposition Zposition Zrotation Xrotation Yrotation
                  JOINT LeftFinger41
                  {
                    OFFSET -0.4882 -2.341 -0.6462
                    CHANNELS 6 Xposition Yposition Zposition Zrotation Xrotation Yrotation
                    JOINT LeftFinger42
                    {
                      OFFSET -0.3575 -1.7167 -0.4742
                      CHANNELS 6 Xposition Yposition Zposition Zrotation Xrotation Yrotation
                      End Site
                      {
                        OFFSET -0.4187 -1.5237 -0.3496
                      }
                    }
                  }
                }
                JOINT LeftFinger0
                {
                  OFFSET -1.42 -1.8761 1.4223
                  CHANNELS 6 Xposition Yposition Zposition Zrotation Xrotation Yrotation
                  JOINT LeftFinger01
                  {
                    OFFSET -1.1471 -3.4929 2.6334
                    CHANNELS 6 Xposition Yposition Zposition Zrotation Xrotation Yrotation
                    JOINT LeftFinger02
                    {
                      OFFSET -0.823 -2.3 1.6571
                      CHANNELS 6 Xposition Yposition Zposition Zrotation Xrotation Yrotation
                      End Site
                      {
                        OFFSET -0.5822 -1.6914 1.1582
                      }
                    }
                  }
                }
              }
            }
          }
        }
        JOINT RightCollar
        {
          OFFSET -2.2603 21.606 7.4023
          CHANNELS 6 Xposition Yposition Zposition Zrotation Xrotation Yrotation
          JOINT RightShoulder
          {
            OFFSET -13.5187 -1.1334 -5.0155
            CHANNELS 6 Xposition Yposition Zposition Zrotation Xrotation Yrotation
            JOINT RightElbow
            {
              OFFSET 0.0994 -28.0499 -0.2431
              CHANNELS 6 Xposition Yposition Zposition Zrotation Xrotation Yrotation
              JOINT RightWrist
              {
                OFFSET -0.0679 -23.3996 -0.1402
                CHANNELS 6 Xposition Yposition Zposition Zrotation Xrotation Yrotation
                JOINT RightFinger1
                {
                  OFFSET -0.7932 -9.0691 2.5189
                  CHANNELS 6 Xposition Yposition Zposition Zrotation Xrotation Yrotation
                  JOINT RightFinger11
                  {
                    OFFSET 0.8272 -3.3923 0.5977
                    CHANNELS 6 Xposition Yposition Zposition Zrotation Xrotation Yrotation
                    JOINT RightFinger12
                    {
                      OFFSET 0.565 -2.3158 0.4082
                      CHANNELS 6 Xposition Yposition Zposition Zrotation Xrotation Yrotation
                      End Site
                      {
                        OFFSET 0.4919 -1.6479 0.2673
                      }
                    }
                  }
                }
                JOINT RightFinger2
                {
                  OFFSET -0.916 -9.2044 0.2193
                  CHANNELS 6 Xposition Yposition Zposition Zrotation Xrotation Yrotation
                  JOINT RightFinger21
                  {
                    OFFSET -0.0117 -4.1944 -0.0248
                    CHANNELS 6 Xposition Yposition Zposition Zrotation Xrotation Yrotation
                    JOINT RightFinger22
                    {
                      OFFSET -0.0071 -2.3249 -0.0142
                      CHANNELS 6 Xposition Yposition Zposition Zrotation Xrotation Yrotation
                      End Site
                      {
                        OFFSET 0.1475 -2.0882 0.0028
                      }
                    }
                  }
                }
                JOINT RightFinger3
                {
                  OFFSET -0.6113 -8.7231 -2.0637
                  CHANNELS 6 Xposition Yposition Zposition Zrotation Xrotation Yrotation
                  JOINT RightFinger31
                  {
                    OFFSET 0.1927 -3.8059 -0.2383
                    CHANNELS 6 Xposition Yposition Zposition Zrotation Xrotation Yrotation
                    JOINT RightFinger32
                    {
                      OFFSET 0.1091 -2.1688 -0.1362
                      CHANNELS 6 Xposition Yposition Zposition Zrotation Xrotation Yrotation
                      End Site
                      {
                        OFFSET 0.2358 -1.9176 -0.0906
                      }
                    }
                  }
                }
                JOINT RightFinger4
                {
                  OFFSET 0.6151 -8.0947 -3.564
                  CHANNELS 6 Xposition Yposition Zposition Zrotation Xrotation Yrotation
                  JOINT RightFinger41
                  {
                    OFFSET 0.4882 -2.341 -0.6462
                    CHANNELS 6 Xposition Yposition Zposition Zrotation Xrotation Yrotation
                    JOINT RightFinger42
                    {
                      OFFSET 0.3574 -1.7166 -0.4742
                      CHANNELS 6 Xposition Yposition Zposition Zrotation Xrotation Yrotation
                      End Site
                      {
                        OFFSET 0.4187 -1.5237 -0.3496
                      }
                    }
                  }
                }
                JOINT RightFinger0
                {
                  OFFSET 1.4199 -1.8761 1.4221
                  CHANNELS 6 Xposition Yposition Zposition Zrotation Xrotation Yrotation
                  JOINT RightFinger01
                  {
                    OFFSET 1.1472 -3.4929 2.6336
                    CHANNELS 6 Xposition Yposition Zposition Zrotation Xrotation Yrotation
                    JOINT RightFinger02
                    {
                      OFFSET 0.8229 -2.3 1.6571
                      CHANNELS 6 Xposition Yposition Zposition Zrotation Xrotation Yrotation
                      End Site
                      {
                        OFFSET 0.5822 -1.6914 1.1582
                      }
                    }
                  }
                }
              }
            }
          }
        }
      }
    }
  }
  JOINT RightHip
  {
    OFFSET -9.412 3.9771 -0.7758
    CHANNELS 6 Xposition Yposition Zposition Zrotation Xrotation Yrotation
    JOINT RightKnee
    {
      OFFSET -0.7531 -40.938 0
      CHANNELS 6 Xposition Yposition Zposition Zrotation Xrotation Yrotation
      JOINT RightAnkle
      {
        OFFSET 0 -40.1986 0
        CHANNELS 6 Xposition Yposition Zposition Zrotation Xrotation Yrotation
        JOINT RightToe
        {
          OFFSET 0 -4.4182 9.239
          CHANNELS 6 Xposition Yposition Zposition Zrotation Xrotation Yrotation
          End Site
          {
            OFFSET 0 0 6.1981
          }
        }
      }
    }
  }
  JOINT LeftHip
  {
    OFFSET 9.4119 3.9773 -0.7758
    CHANNELS 6 Xposition Yposition Zposition Zrotation Xrotation Yrotation
    JOINT LeftKnee
    {
      OFFSET 0.7532 -40.9383 0
      CHANNELS 6 Xposition Yposition Zposition Zrotation Xrotation Yrotation
      JOINT LeftAnkle
      {
        OFFSET 0 -40.1986 0
        CHANNELS 6 Xposition Yposition Zposition Zrotation Xrotation Yrotation
        JOINT LeftToe
        {
          OFFSET 0 -4.4182 9.239
          CHANNELS 6 Xposition Yposition Zposition Zrotation Xrotation Yrotation
          End Site
          {
            OFFSET 0 0 6.1981
          }
        }
      }
    }
  }
}
MOTION
Frames:	4
Frame Time:	0.0333333
5.80788e-005 67.184 3.4734 0 0 -0 0 8.7983 -4.7612 0 0 -0 0 8.0291 0.4195 0 0 -0 0 9.9351 -2.2114 0 0 -0 0 22.3885 -0.4656 0 0 -0 -0.0001 12.643 3.4389 0 0 -0 2.2603 21.606 7.4023 0 0 -12.5014 13.5163 -1.1332 -5.0146 88.1196 14.2451 10.6914 -0.0995 -28.05 -0.2431 -0.00160068 -0.00239207 0.000740045 0.0679 -23.3996 -0.1402 -8.4365e-005 7.00714e-005 -9.52055e-007 0.7932 -9.069 2.5189 9.93923e-017 -1.98785e-016 -1.59028e-015 -0.8272 -3.3923 0.5977 9.93923e-017 -5.96354e-016 -1.59028e-015 -0.5649 -2.3158 0.4082 -9.93923e-017 -5.96354e-016 -1.59028e-015 0.9159 -9.2044 0.2193 9.93923e-017 -1.98785e-016 -1.59028e-015 0.0117 -4.1944 -0.0248 -0.0128176 0.00232552 8.52707e-005 0.0071 -2.3249 -0.0142 9.93923e-017 5.96354e-016 -0 0.6113 -8.7231 -2.0637 9.93923e-017 -1.98785e-016 -1.59028e-015 -0.1927 -3.8059 -0.2383 -0.0160551 0.00299681 0.000857156 -0.1091 -2.1688 -0.1362 -2.48481e-016 0 3.18055e-015 -0.6151 -8.0947 -3.5641 9.93923e-017 -1.98785e-016 -1.59028e-015 -0.4882 -2.341 -0.6462 -0.0125865 0.0031206 0.00282719 -0.3575 -1.7167 -0.4742 0 1.98785e-016 -0 -1.42 -1.8761 1.4223 9.93923e-017 -1.98785e-016 -1.59028e-015 -1.1471 -3.4929 2.6334 9.93923e-017 -5.96354e-016 -1.59028e-015 -0.823 -2.3 1.6571 -9.93923e-017 -5.96354e-016 -1.59028e-015 -2.2603 21.606 7.4023 -0.865644 0.16582 7.03859 -13.5187 -1.1334 -5.0155 -88.0329 10.2057 -10.5567 0.0994 -28.0499 -0.2431 0.0015593 -0.00248883 -0.000788628 -0.0679 -23.3996 -0.1402 7.87605e-005 4.10553e-005 1.24965e-005 -0.7932 -9.0691 2.5189 -3.97569e-016 -7.95139e-016 3.18055e-015 0.8272 -3.3923 0.5977 -1.98785e-016 -3.97569e-016 3.18055e-015 0.565 -2.3158 0.4082 -1.98785e-016 0 3.18055e-015 -0.916 -9.2044 0.2193 -3.97569e-016 -7.95139e-016 3.18055e-015 -0.0117 -4.1944 -0.0248 0.0129473 0.00231697 -8.70038e-005 -0.0071 -2.3249 -0.0142 9.93923e-017 -7.95139e-016 1.59028e-015 -0.6113 -8.7231 -2.0637 -3.97569e-016 -7.95139e-016 3.18055e-015 0.1927 -3.8059 -0.2383 0.0163314 0.00303369 -0.000872333 0.1091 -2.1688 -0.1362 3.97569e-016 7.95139e-016 -3.18055e-015 0.6151 -8.0947 -3.564 -3.97569e-016 -7.95139e-016 3.18055e-015 0.4882 -2.341 -0.6462 0.0145763 0.00367772 -0.00326275 0.3574 -1.7166 -0.4742 9.93923e-017 -3.97569e-016 -0 1.4199 -1.8761 1.4221 -3.97569e-016 -7.95139e-016 3.18055e-015 1.1472 -3.4929 2.6336 -1.98785e-016 -3.97569e-016 3.18055e-015 0.8229 -2.3 1.6571 -1.98785e-016 0 3.18055e-015 -9.412 3.9771 -0.7758 3.42485 1.36937 -0.0640303 -0.7531 -40.938 0 0.000136572 0.69354 0.00145564 1.77636e-015 -40.1986 -1.11022e-016 -3.42573 -2.06297 -0.0607933 8.88178e-016 -4.4182 9.239 -3.19502e-024 0 -1.48106e-024 9.4119 3.9773 -0.7758 -3.42498 1.36123 0.0639712 0.7532 -40.9383 2.22045e-016 -6.769e-005 0.712612 -0.0012277 8.88179e-016 -40.1986 0 3.42582 -2.07388 0.0612819 -8.88178e-016 -4.4182 9.239 2.55305e-023 0 -2.31416e-026 
0.0141339 23.8676 -54.959 -0 -63.0022 -0 0 8.7983 -4.7612 0 12.9988 -0 0 8.0291 0.4195 0 25.9976 -0 0 9.9351 -2.2114 0 25.9976 -0 0 22.3885 -0.4656 -0 -0.00067097 -0 -0.0001 12.643 3.4389 0.000829394 0.274519 -0.173106 2.2603 21.606 7.4023 6.14043e-008 -0.000670237 -12.5014 13.5163 -1.1332 -5.0146 18.2295 -10.1529 37.9047 -0.0995 -28.05 -0.2431 -15.2672 -40.2411 -28.898 0.0679 -23.3996 -0.1402 1.04354 -0.516658 -29.9892 0.7932 -9.069 2.5189 -1.38549e-006 1.59028e-014 -9.29455e-007 -0.8272 -3.3923 0.5977 -4.41391e-032 -3.18055e-015 -7.95139e-016 -0.5649 -2.3158 0.4082 1.59028e-015 0 4.77083e-015 0.9159 -9.2044 0.2193 -1.38549e-006 1.59028e-014 -9.29455e-007 0.0117 -4.1944 -0.0248 -0.0128137 0.0023287 8.28709e-005 0.0071 -2.3249 -0.0142 3.18055e-015 0 1.59028e-015 0.6113 -8.7231 -2.0637 -1.38549e-006 1.59028e-014 -9.29455e-007 -0.1927 -3.8059 -0.2383 -0.0160043 0.00299531 0.000857467 -0.1091 -2.1688 -0.1362 -3.62761e-006 1.00538e-005 8.71721e-006 -0.6151 -8.0947 -3.5641 -1.38549e-006 1.59028e-014 -9.29455e-007 -0.4882 -2.341 -0.6462 -0.012611 0.00313432 0.00283504 -0.3575 -1.7167 -0.4742 4.77083e-015 0 -6.36111e-015 -1.42 -1.8761 1.4223 -1.38549e-006 1.59028e-014 -9.29455e-007 -1.1471 -3.4929 2.6334 -4.41391e-032 -3.18055e-015 -7.95139e-016 -0.823 -2.3 1.6571 1.59028e-015 0 4.77083e-015 -2.2603 21.606 7.4023 -0.865644 0.165149 7.03858 -13.5187 -1.1334 -5.0155 -15.6345 -21.1416 12.1807 0.0994 -28.0499 -0.2431 9.51029 -61.7258 3.69151 -0.0679 -23.3996 -0.1402 65.3894 11.1292 -3.03799 -0.7932 -9.0691 2.5189 -5.46658e-016 -4.63417e-015 -0 0.8272 -3.3923 0.5977 9.93923e-017 -4.99446e-015 -1.59028e-015 0.565 -2.3158 0.4082 -1.59028e-015 -5.25537e-015 -0 -0.916 -9.2044 0.2193 -5.46658e-016 -4.63417e-015 -0 -0.0117 -4.1944 -0.0248 0.0130004 0.00228945 -8.29897e-005 -0.0071 -2.3249 -0.0142 -4.96962e-017 -8.19987e-015 -1.43125e-014 -0.6113 -8.7231 -2.0637 -5.46658e-016 -4.63417e-015 -0 0.1927 -3.8059 -0.2383 0.0163851 0.00299963 -0.000871977 0.1091 -2.1688 -0.1362 -3.47873e-016 1.10512e-014 -4.77083e-015 0.6151 -8.0947 -3.564 -5.46658e-016 -4.63417e-015 -0 0.4882 -2.341 -0.6462 0.0145953 0.00367014 -0.00326778 0.3574 -1.7166 -0.4742 -1.49089e-016 -2.06239e-015 -0 1.4199 -1.8761 1.4221 -5.46658e-016 -4.63417e-015 -0 1.1472 -3.4929 2.6336 9.93923e-017 -4.99446e-015 -1.59028e-015 0.8229 -2.3 1.6571 -1.59028e-015 -5.25537e-015 -0 -9.412 3.9771 -0.7758 -9.73056 -29.2058 14.3862 -0.7531 -40.938 0 0.0353597 76.8677 -1.83668 0 -40.1986 0 -2.84589 14.7297 -0.833193 -3.55271e-015 -4.4182 9.239 -4.81524e-006 -2.39622e-007 1.02342e-006 9.4119 3.9773 -0.7758 9.87632 -28.9373 -17.3002 0.7532 -40.9383 0 -0.0302539 76.2276 1.71013 0 -40.1986 -3.55271e-015 1.93407 9.23224 1.09259 -3.55271e-015 -4.4182 9.239 3.11143e-006 -1.03693e-006 -4.54808e-007 
0.0141351 23.8675 -54.959 -0 -63.0022 -0 0 8.7983 -4.7612 0 12.9988 -0 0 8.0291 0.4195 0 25.9976 -0 0 9.9351 -2.2114 0 25.9976 -0 0 22.3885 -0.4656 -0 -0.000667984 -0 -0.0001 12.643 3.4389 0.000829393 0.274519 -0.173106 2.2603 21.606 7.4023 3.27899e-008 -0.000667251 -12.5014 13.5163 -1.1332 -5.0146 18.2295 -10.1529 37.9047 -0.0995 -28.05 -0.2431 -15.2672 -40.2412 -28.8979 0.0679 -23.3996 -0.1402 1.04356 -0.516633 -29.9892 0.7932 -9.069 2.5189 -2.07824e-006 2.30447e-006 -1.39418e-006 -0.8272 -3.3923 0.5977 -5.84895e-006 1.82246e-006 4.84618e-006 -0.5649 -2.3158 0.4082 -7.71328e-006 5.83484e-006 6.26581e-006 0.9159 -9.2044 0.2193 -2.07824e-006 2.30447e-006 -1.39418e-006 0.0117 -4.1944 -0.0248 -0.0128408 0.00232206 9.67743e-005 0.0071 -2.3249 -0.0142 -3.75378e-006 6.911e-006 -5.47402e-006 0.6113 -8.7231 -2.0637 -2.07824e-006 2.30447e-006 -1.39418e-006 -0.1927 -3.8059 -0.2383 -0.0160723 0.0030026 0.000863976 -0.1091 -2.1688 -0.1362 -1.59189e-006 1.6663e-006 -9.72243e-007 -0.6151 -8.0947 -3.5641 -2.07824e-006 2.30447e-006 -1.39418e-006 -0.4882 -2.341 -0.6462 -0.0125756 0.00311708 0.00282393 -0.3575 -1.7167 -0.4742 -2.00412e-006 -2.92984e-006 -1.05718e-006 -1.42 -1.8761 1.4223 -2.07824e-006 2.30447e-006 -1.39418e-006 -1.1471 -3.4929 2.6334 -5.84895e-006 1.82246e-006 4.84618e-006 -0.823 -2.3 1.6571 -7.71328e-006 5.83484e-006 6.26581e-006 -2.2603 21.606 7.4023 -0.865644 0.165152 7.03858 -13.5187 -1.1334 -5.0155 -15.6346 -21.1416 12.1807 0.0994 -28.0499 -0.2431 10.0746 -62.7597 4.11761 -0.0679 -23.3996 -0.1402 65.3894 11.1292 -3.03811 -0.7932 -9.0691 2.5189 9.44227e-016 -1.73937e-016 1.59028e-015 0.8272 -3.3923 0.5977 9.93923e-016 -3.15571e-015 -0 0.565 -2.3158 0.4082 9.93923e-016 1.2424e-016 1.59028e-015 -0.916 -9.2044 0.2193 9.44227e-016 -1.73937e-016 1.59028e-015 -0.0117 -4.1944 -0.0248 0.0129388 0.00229997 -7.8195e-005 -0.0071 -2.3249 -0.0142 -4.96962e-016 -2.55935e-015 1.59028e-015 -0.6113 -8.7231 -2.0637 9.44227e-016 -1.73937e-016 1.59028e-015 0.1927 -3.8059 -0.2383 0.0162788 0.00298703 -0.000872746 0.1091 -2.1688 -0.1362 1.19271e-015 -3.31722e-015 3.18055e-015 0.6151 -8.0947 -3.564 9.44227e-016 -1.73937e-016 1.59028e-015 0.4882 -2.341 -0.6462 0.0146339 0.00369608 -0.0032726 0.3574 -1.7166 -0.4742 3.47873e-016 -1.71576e-014 -0 1.4199 -1.8761 1.4221 9.44227e-016 -1.73937e-016 1.59028e-015 1.1472 -3.4929 2.6336 9.93923e-016 -3.15571e-015 -0 0.8229 -2.3 1.6571 9.93923e-016 1.2424e-016 1.59028e-015 -9.412 3.9771 -0.7758 -9.70194 -29.1937 14.3804 -0.7531 -40.938 -3.55271e-015 0.0344003 76.8429 -2.41499 0 -40.1986 1.77636e-015 -2.80676 14.7176 -0.843936 -3.55271e-015 -4.4182 9.239 1.59546e-006 1.62382e-007 -6.87387e-008 9.4119 3.9773 -0.7758 9.85119 -28.9243 -17.2945 0.7532 -40.9383 -3.55271e-015 -0.0296499 76.2018 2.28866 0 -40.1986 3.55271e-015 1.89935 9.2202 1.10107 3.55271e-015 -4.4182 9.239 -1.46458e-006 -5.66647e-007 1.89818e-006 
0.0141377 23.8674 -54.9591 -0 -63.0022 -0 0 8.7983 -4.7612 0 12.9988 -0 0 8.0291 0.4195 0 25.9976 -0 0 9.9351 -2.2114 0 25.9976 -0 0 22.3885 -0.4656 -0 -0.000667984 -0 -0.0001 12.643 3.4389 0.000829393 0.274519 -0.173106 2.2603 21.606 7.4023 3.27899e-008 -0.000667251 -12.5014 13.5163 -1.1332 -5.0146 18.2295 -10.1529 37.9047 -0.0995 -28.05 -0.2431 -15.2672 -40.2412 -28.8979 0.0679 -23.3996 -0.1402 1.04356 -0.516633 -29.9892 0.7932 -9.069 2.5189 -2.07824e-006 2.30447e-006 -1.39418e-006 -0.8272 -3.3923 0.5977 -5.84895e-006 1.82246e-006 4.84618e-006 -0.5649 -2.3158 0.4082 -7.71328e-006 5.83484e-006 6.26581e-006 0.9159 -9.2044 0.2193 -2.07824e-006 2.30447e-006 -1.39418e-006 0.0117 -4.1944 -0.0248 -0.0128408 0.00232206 9.67743e-005 0.0071 -2.3249 -0.0142 -3.75378e-006 6.911e-006 -5.47402e-006 0.6113 -8.7231 -2.0637 -2.07824e-006 2.30447e-006 -1.39418e-006 -0.1927 -3.8059 -0.2383 -0.0160723 0.0030026 0.000863976 -0.1091 -2.1688 -0.1362 -1.59189e-006 1.6663e-006 -9.72243e-007 -0.6151 -8.0947 -3.5641 -2.07824e-006 2.30447e-006 -1.39418e-006 -0.4882 -2.341 -0.6462 -0.0125756 0.00311708 0.00282393 -0.3575 -1.7167 -0.4742 -2.00412e-006 -2.92984e-006 -1.05718e-006 -1.42 -1.8761 1.4223 -2.07824e-006 2.30447e-006 -1.39418e-006 -1.1471 -3.4929 2.6334 -5.84895e-006 1.82246e-006 4.84618e-006 -0.823 -2.3 1.6571 -7.71328e-006 5.83484e-006 6.26581e-006 -2.2603 21.606 7.4023 -0.865644 0.165152 7.03858 -13.5187 -1.1334 -5.0155 -15.6345 -21.1416 12.1807 0.0994 -28.0499 -0.2431 10.6776 -63.7926 4.58286 -0.0679 -23.3996 -0.1402 65.3894 11.1293 -3.03826 -0.7932 -9.0691 2.5189 2.13694e-015 -9.81499e-016 -0 0.8272 -3.3923 0.5977 7.31482e-006 -3.72017e-005 7.2969e-006 0.565 -2.3158 0.4082 -3.47873e-016 6.21202e-016 -3.18055e-015 -0.916 -9.2044 0.2193 2.13694e-015 -9.81499e-016 -0 -0.0117 -4.1944 -0.0248 0.0129939 0.00229881 -8.22362e-005 -0.0071 -2.3249 -0.0142 -1.49089e-016 2.6339e-015 -1.27222e-014 -0.6113 -8.7231 -2.0637 2.13694e-015 -9.81499e-016 -0 0.1927 -3.8059 -0.2383 0.0163386 0.00302731 -0.000868679 0.1091 -2.1688 -0.1362 9.20418e-007 -3.99655e-005 -6.29803e-006 0.6151 -8.0947 -3.564 2.13694e-015 -9.81499e-016 -0 0.4882 -2.341 -0.6462 0.0145414 0.0036173 -0.00324952 0.3574 -1.7166 -0.4742 6.4605e-016 5.34234e-016 -1.59028e-015 1.4199 -1.8761 1.4221 2.13694e-015 -9.81499e-016 -0 1.1472 -3.4929 2.6336 7.31482e-006 -3.72017e-005 7.2969e-006 0.8229 -2.3 1.6571 -3.47873e-016 6.21202e-016 -3.18055e-015 -9.412 3.9771 -0.7758 -9.67358 -29.1809 14.3747 -0.7531 -40.938 3.55271e-015 0.033485 76.8168 -2.99353 0 -40.1986 -1.77636e-015 -2.76769 14.7061 -0.854585 -3.55271e-015 -4.4182 9.239 7.95139e-016 1.98785e-015 -1.59028e-015 9.4119 3.9773 -0.7758 9.8261 -28.9116 -17.289 0.7532 -40.9383 0 -0.0289896 76.1757 2.86722 0 -40.1986 -5.32907e-015 1.86458 9.20875 1.10951 0 -4.4182 9.239 8.94531e-016 -1.59028e-015 -3.18055e-015 
